<?xml version="1.0" encoding="UTF-8"?>
<!DOCTYPE svg PUBLIC "-//W3C//DTD SVG 1.1//EN" "http://www.w3.org/Graphics/SVG/1.1/DTD/svg11.dtd">
<!-- Creator: CorelDRAW 2019 (64-Bit) -->
<svg xmlns="http://www.w3.org/2000/svg" xml:space="preserve" width="60.9089mm" height="78.699mm" version="1.1" style="shape-rendering:geometricPrecision; text-rendering:geometricPrecision; image-rendering:optimizeQuality; fill-rule:evenodd; clip-rule:evenodd"
viewBox="0 0 1602.81 2070.96"
 xmlns:xlink="http://www.w3.org/1999/xlink"
 xmlns:xodm="http://www.corel.com/coreldraw/odm/2003">
 <defs>
  <style type="text/css">
   <![CDATA[
    .fil7 {fill:#0063ED}
    .fil16 {fill:#0072EE}
    .fil52 {fill:#0082EF}
    .fil15 {fill:#00A4F1}
    .fil14 {fill:#00B6F2}
    .fil27 {fill:#00CBF4}
    .fil10 {fill:#0155EC}
    .fil51 {fill:#0190F0}
    .fil33 {fill:#01D5F5}
    .fil49 {fill:#1A63EE}
    .fil22 {fill:#1A76EF}
    .fil21 {fill:#1A80F0}
    .fil19 {fill:#1A8DF1}
    .fil30 {fill:#1A98F1}
    .fil25 {fill:#1AA4F2}
    .fil24 {fill:#1AB0F3}
    .fil29 {fill:#1AB9F3}
    .fil31 {fill:#1AC8F4}
    .fil32 {fill:#1AD8F6}
    .fil34 {fill:#1AE7F7}
    .fil13 {fill:#3242E6}
    .fil50 {fill:#4454E9}
    .fil11 {fill:#4743E4}
    .fil4 {fill:#5744E3}
    .fil47 {fill:#5956E7}
    .fil46 {fill:#6745E2}
    .fil54 {fill:#7057E5}
    .fil55 {fill:#7445E0}
    .fil53 {fill:#7C58E4}
    .fil35 {fill:#8046DF}
    .fil28 {fill:#8F59E2}
    .fil41 {fill:#9047DE}
    .fil26 {fill:#9F5AE1}
    .fil39 {fill:#A348DC}
    .fil17 {fill:#AD5BE0}
    .fil40 {fill:#BB49DA}
    .fil23 {fill:#BB5CDF}
    .fil18 {fill:#CC5CDE}
    .fil20 {fill:#D95CDB}
    .fil8 {fill:#F5944F}
    .fil48 {fill:#F66D54}
    .fil37 {fill:#F67753}
    .fil36 {fill:#F68551}
    .fil42 {fill:#F74E59}
    .fil43 {fill:#F75D57}
    .fil6 {fill:#F7606B}
    .fil9 {fill:#F78765}
    .fil12 {fill:#F79A62}
    .fil2 {fill:#F82660}
    .fil1 {fill:#F8375D}
    .fil3 {fill:#F8425B}
    .fil0 {fill:#F86F69}
    .fil5 {fill:#F87B68}
    .fil44 {fill:#F9496F}
    .fil38 {fill:#F9566D}
    .fil45 {fill:#FA3C71}
   ]]>
  </style>
 </defs>
 <g id="Layer_x0020_1">
  <metadata id="CorelCorpID_0Corel-Layer"/>
  <g id="_2923472175904">
   <path class="fil0" d="M984.34 633.21c-43.1,0.29 -86.19,0.58 -131.46,-1.28 -25.15,-103.26 -48.13,-204.37 -69.67,-306.11 6.23,-3.22 11.02,-5.82 18.77,-10.02 -38.28,-17.52 -72.98,-33.4 -107.68,-51.21 -0.73,-9.43 0.18,-17.57 -2.46,-24.33 -16.39,-42.12 -33.5,-83.96 -50.54,-125.82 -4.49,-11.04 -9.61,-21.82 -14.39,-32.74 -11.33,-25.93 -22.62,-51.87 -33.93,-77.81 63.03,-1.2 126.06,-2.4 191.23,-1.48 9.28,21.95 15.54,42.17 23.74,61.56 25.4,60 51.74,119.6 77.23,179.56 5.01,11.79 7.89,24.5 10.24,37.48 -30.35,12.36 -59.18,24.03 -90.53,36.71 47.18,22.61 90.32,43.29 133.26,65.7 -1.11,7.6 -3.93,13.93 -2.65,19.26 12.08,49.99 25.81,99.6 37.08,149.77 5.94,26.47 7.95,53.82 11.73,80.78z"/>
   <path class="fil1" d="M150.84 225.1c41.27,-49.41 88.93,-91.51 145.42,-124.04 4.79,12.24 6.79,23.59 11.2,33.91 18.96,44.4 39.03,88.32 57.9,132.75 17.53,41.28 34.34,82.88 50.9,124.56 8.86,22.31 16.52,45.09 23.05,67.85 -43.51,16.99 -85.36,33.78 -128.67,51.19 -11.27,4.77 -21.07,8.92 -30.85,11.21 -0.7,-7.87 -0.05,-14.46 -2.33,-19.8 -25.43,-59.47 -50.71,-119.02 -77.3,-177.97 -15.23,-33.76 -32.81,-66.47 -49.33,-99.65z"/>
   <path class="fil2" d="M149.35 225.59c18.01,32.69 35.59,65.4 50.82,99.17 26.6,58.95 51.87,118.5 77.3,177.97 2.28,5.34 1.63,11.93 0.64,20 -27.86,12.8 -53.97,23.68 -80.2,34.26 -63.07,25.44 -126.2,50.73 -190.61,76.5 -3.11,0.69 -4.92,0.96 -6.73,1.23 -3.46,-59.03 9.13,-115.84 23.78,-172.39 22.88,-88.33 67.94,-165.03 125,-236.74z"/>
   <path class="fil3" d="M440.99 459.95c-8.2,-22.57 -15.86,-45.35 -24.72,-67.66 -16.56,-41.68 -33.37,-83.28 -50.9,-124.56 -18.87,-44.43 -38.94,-88.35 -57.9,-132.75 -4.41,-10.32 -6.41,-21.67 -9.68,-34.57 3.33,-4.41 6.83,-6.79 13.37,-9.03 66.79,29.35 130.55,58.56 194.34,89.49 11.87,30.37 23.96,58.92 35.49,87.68 17.53,43.76 34.67,87.67 50.46,132.19 -38.87,15.6 -76.22,30.54 -115.08,46.11 -12.8,4.79 -24.08,8.94 -35.36,13.09z"/>
   <path class="fil4" d="M2.74 805.35c-0.28,-24.68 -0.57,-49.37 1.82,-76.16 30.66,-3.52 58.64,-4.93 86.59,-4.55 16.78,60.95 33.55,120.12 50.42,179.26 18.59,65.12 36.49,130.46 56.3,195.21 8.29,27.09 20.74,52.9 30.42,80.54 -29.45,21.9 -58.01,42.56 -87.29,61.77 -17.14,-50.26 -34.57,-98.77 -49.61,-148 -10.65,-34.86 -17.07,-70.99 -27.16,-106.04 -16.38,-56.89 -34.09,-113.4 -51.7,-169.92 -1.43,-4.6 -6.43,-8.1 -9.78,-12.11z"/>
   <path class="fil5" d="M896.95 280.29c-3.86,-12.29 -6.74,-24.99 -11.75,-36.79 -25.5,-59.96 -51.83,-119.56 -77.23,-179.56 -8.21,-19.39 -14.46,-39.6 -21.63,-61.13 66.11,-1.98 132.25,-2.26 200.52,-0.37 4,9.33 5.05,16.82 7.86,23.57 20.89,50.17 41.85,100.33 63.48,150.19 4.68,10.8 12.16,20.38 17.39,31.81 -32.57,14.26 -64.18,27.23 -97.33,40.84 -28.12,10.91 -54.71,21.17 -81.31,31.43z"/>
   <path class="fil6" d="M505.46 179.14c-63.76,-29.21 -127.52,-58.42 -193.02,-87.98 66.53,-44.7 142.13,-69.24 221.82,-82.31 18,-2.96 36.36,-3.67 56.65,-5.19 13.4,26.16 24.69,52.1 36.02,78.03 4.77,10.93 9.89,21.71 14.39,32.74 17.04,41.86 34.15,83.71 50.54,125.82 2.63,6.76 1.73,14.89 0.96,23.7 -63.45,-27.4 -125.39,-56.11 -187.34,-84.81z"/>
   <path class="fil7" d="M195.51 1892.85c-21.38,-23.26 -42.76,-46.51 -65.52,-70.55 -12.55,-18.19 -23.73,-35.6 -34.49,-56.11 11.67,-24.17 24.35,-44.62 33.93,-66.43 26.28,-59.89 51.25,-120.35 78.44,-180.41 13.72,4.68 25.92,8.8 37.74,13.79 28.39,11.99 56.61,24.39 84.87,38.4 -17.16,45.71 -33.86,89.83 -51.59,133.52 -10.92,26.92 -23.9,52.99 -35.09,79.81 -12.73,30.51 -24.24,61.52 -36.87,92.08 -2.42,5.87 -7.53,10.63 -11.4,15.91z"/>
   <path class="fil8" d="M1602.81 25.19c-6.67,72.11 -13.56,143.15 -43,207.8 -23.45,51.49 -55.51,99.07 -85.89,147.47 -14.82,-58.06 -27.21,-115.28 -40.27,-172.34 -9.61,-42.01 -20.1,-83.83 -28.69,-126.4 66.28,-26.24 131.05,-51.81 195.82,-77.37 0.53,6.33 1.06,12.65 2.03,20.84z"/>
   <path class="fil9" d="M1076.55 206.73c-6.19,-10.14 -13.66,-19.73 -18.35,-30.53 -21.63,-49.86 -42.59,-100.01 -63.48,-150.19 -2.81,-6.76 -3.86,-14.24 -5.75,-23.14 70.72,-2.04 141.45,-2.33 214.37,-0.55 13.86,29.94 24.97,58.07 37.44,85.58 7.05,15.56 16.32,30.12 23.81,46.3 -4.89,3.47 -8.99,5.76 -14.64,8.72 -46.56,18.62 -91.57,36.57 -138.29,54.72 -12.84,3.16 -23.97,6.12 -35.1,9.08z"/>
   <path class="fil10" d="M206.16 1519.18c-25.49,60.23 -50.46,120.69 -76.74,180.58 -9.57,21.81 -22.25,42.26 -34.35,64.98 -41,-59.6 -68.19,-126.5 -81.22,-198.23 -7.52,-41.4 -8.38,-84.01 -10.29,-128.1 2.87,-1.97 3.79,-1.93 5.69,-0.63 5.06,3.26 9.04,5.54 13.26,7.25 61.2,24.76 122.43,49.44 183.66,74.15z"/>
   <path class="fil11" d="M2.07 807.41c4.02,1.95 9.01,5.44 10.45,10.05 17.61,56.52 35.32,113.03 51.7,169.92 10.09,35.05 16.52,71.18 27.16,106.04 15.04,49.23 32.48,97.74 48.82,149.17 -4.15,6.43 -8.23,10.23 -13.76,14.67 -28.1,18.65 -54.77,36.67 -81.65,52.91 -9.29,-31.24 -17.87,-60.87 -27.84,-90.03 -1.94,-5.68 -9.27,-9.52 -14.12,-14.21 -0.53,-45.81 -1.4,-91.62 -1.51,-137.43 -0.21,-86.35 0.02,-172.69 0.74,-261.1z"/>
   <path class="fil12" d="M1265.35 133.04c-8.27,-15.01 -17.54,-29.57 -24.59,-45.13 -12.47,-27.51 -23.58,-55.64 -35.32,-85.16 85.83,-2.04 171.72,-2.63 257.61,-2.74 45.22,-0.06 90.44,0.74 136.69,2.75 -63.73,27.15 -128.5,52.72 -196.49,79.14 -12.48,4.37 -21.73,7.94 -31.02,11.39 -35.62,13.27 -71.25,26.5 -106.88,39.75z"/>
   <path class="fil13" d="M2.38 1207.96c5.3,2.67 12.63,6.51 14.57,12.19 9.97,29.16 18.55,58.8 27.14,91.44 -9.08,10.97 -17.68,18.78 -31.11,30.97 48.86,2.28 91.06,4.25 133.27,8.37 0.02,29.89 0.02,57.63 -2.13,85.41 -46.72,0.09 -91.29,0.15 -135.85,0.2 -0.92,-0.04 -1.85,-0.09 -4.16,-0.22 -1.65,-75.5 -1.92,-150.91 -1.73,-228.35z"/>
   <path class="fil13" d="M91.18 722.84c-27.98,1.41 -55.97,2.83 -86.12,4.28 -2.87,-29.33 -3.56,-58.7 -4.37,-90.24 1.69,-2.43 3.51,-2.7 8.69,-2.94 35.6,0.44 67.82,0.86 100.1,3.2 1.59,29.76 3.11,57.59 2.72,85.43 -8.28,0.1 -14.65,0.19 -21.02,0.27z"/>
   <path class="fil14" d="M1322.58 1545.93c38.89,33.09 77.77,66.18 117,102.47 -2.77,14.21 -5.41,25.39 -9.09,36.21 -17.61,51.65 -35.25,103.29 -53.39,154.76 -13.9,39.45 -28.54,78.63 -44.75,117.78 -8.24,-0.34 -14.58,-0.52 -21.91,-1.98 -5.83,-3.47 -10.62,-5.78 -15.52,-7.83 -32.88,-13.72 -65.78,-27.38 -98.48,-42.87 9.45,-32.89 17.74,-64.29 28.15,-94.97 23.66,-69.7 47.98,-139.18 72.89,-208.44 6.81,-18.94 16.64,-36.79 25.09,-55.14z"/>
   <path class="fil15" d="M1321.66 1544.64c-7.52,19.64 -17.35,37.49 -24.16,56.43 -24.91,69.26 -49.23,138.74 -72.89,208.44 -10.41,30.68 -18.7,62.08 -29.9,94.85 -13.02,-1.49 -24.09,-4.68 -36.17,-9.13 -5.86,-3.44 -10.67,-5.72 -15.58,-7.76 -32.9,-13.7 -65.82,-27.36 -98.53,-42.82 16.53,-53.62 33.25,-105.33 49,-157.33 7.58,-25.04 13.34,-50.65 21.44,-76.66 60.68,-28.07 119.85,-55.47 179.02,-82.88 8.95,5.19 17.9,10.38 27.77,16.87z"/>
   <path class="fil16" d="M196.3 1894.22c3.08,-6.63 8.19,-11.4 10.61,-17.27 12.63,-30.56 24.14,-61.57 36.87,-92.08 11.19,-26.82 24.17,-52.89 35.09,-79.81 17.73,-43.7 34.43,-87.81 53.35,-133.48 15.97,2.88 30.15,7.48 45.37,13.33 32.58,14.22 64.13,27.19 94.42,41.07 -12.38,19.92 -25.71,38.01 -34.11,58.16 -14.85,35.6 -25.34,73.01 -40.13,108.63 -19.98,48.15 -42.87,95.09 -63.15,143.12 -4.34,10.27 -2.87,23 -5.05,35.87 -6.96,3.76 -12.94,6.25 -18.93,8.73 -37.85,-28.3 -75.7,-56.61 -114.34,-86.28z"/>
   <path class="fil17" d="M832.47 1344.73c-35.4,0.22 -70.81,0.44 -108.4,-1.52 -6.17,-18.43 -9.63,-34.83 -14.23,-50.9 -22.82,-79.85 -45.67,-159.69 -69.05,-239.38 -13.9,-47.37 -28.79,-94.45 -42.55,-143.06 17.12,-14.28 33.56,-27.18 51.38,-40.74 14.27,-9.43 27.15,-18.18 41.3,-25.88 1.91,2.44 2.74,3.76 3.15,5.2 39.98,138.98 80.12,277.91 119.69,417 7.42,26.08 12.52,52.82 18.69,79.26z"/>
   <path class="fil18" d="M818.73 726.4c3.45,-0.24 6.91,-0.48 11.91,1.31 4.45,17.89 6.22,34.07 10.42,49.58 26.52,97.78 52.95,195.58 80.66,293.03 23.78,83.64 49.34,166.77 73.73,250.23 2.3,7.87 1.82,16.56 2.64,24.87 -27.76,0.48 -55.52,0.95 -85.33,-0.91 -13.93,-44.12 -25.78,-85.91 -37.66,-127.69 -40.31,-141.74 -80.63,-283.48 -119.55,-425.91 16.58,-12.12 32.86,-22.39 46.53,-35.41 7.76,-7.39 11.25,-19.25 16.66,-29.1z"/>
   <path class="fil19" d="M823.24 1438.06c54.46,-0.07 108.92,-0.15 163.32,2.22 -2.94,7.84 -6.64,12.95 -8.57,18.66 -20.76,61.22 -41.44,122.46 -61.68,183.84 -7.1,21.53 -12.95,43.47 -20.3,66.5 -31.01,15.77 -61.08,30.26 -92.3,44.76 -1.92,-0.02 -2.69,-0.03 -4.5,-1.3 -23.39,-11.12 -45.73,-21 -68.07,-32.74 0.61,-6.36 0.46,-11.12 1.94,-15.32 22.38,-63.71 45.31,-127.22 67.36,-191.04 8.58,-24.86 15.27,-50.37 22.82,-75.59z"/>
   <path class="fil20" d="M999.78 1346.1c-2.51,-8.99 -2.04,-17.68 -4.34,-25.55 -24.39,-83.47 -49.95,-166.59 -73.73,-250.23 -27.71,-97.44 -54.14,-195.25 -80.66,-293.03 -4.21,-15.51 -5.98,-31.69 -8.7,-49.37 7.45,4.47 17.77,9.31 21.54,17.25 36.72,77.5 72.35,155.52 109.29,234.53 20.84,45.7 40.27,90.44 60.61,134.77 32.79,71.44 66.2,142.6 99.25,213.92 1.85,4 2.85,8.39 6.15,18.38 -44.53,0 -86.12,0 -129.41,-0.68z"/>
   <path class="fil21" d="M821.12 1437.64c-5.43,25.64 -12.11,51.15 -20.7,76.01 -22.04,63.82 -44.97,127.34 -67.36,191.04 -1.47,4.19 -1.32,8.95 -3.71,15.25 -6.84,0.23 -11.98,-1.15 -16.96,-2.96 -33.66,-12.18 -67.3,-24.46 -101.94,-37.93 -12.63,-6.54 -24.26,-11.85 -35.71,-18.81 7.97,-23.46 15.93,-45.22 23.49,-67.12 4.91,-14.22 9.59,-28.54 13.75,-43 10.74,-37.32 21.13,-74.74 31.66,-112.11 58.45,-0.27 116.9,-0.53 177.47,-0.38z"/>
   <path class="fil22" d="M641.53 1437.6c-8.42,37.8 -18.81,75.22 -29.55,112.53 -4.16,14.45 -8.84,28.78 -13.75,43 -7.56,21.9 -15.53,43.66 -25.21,66.95 -34.51,-10.69 -67.13,-22.85 -99.76,-35 -31.55,-12.97 -63.1,-25.94 -95,-41.7 6.91,-27.99 13.95,-53.27 21.58,-78.37 2.17,-7.14 6.7,-13.54 9,-20.66 5.02,-15.55 9.3,-31.34 16.01,-47.31 48.5,-0.51 94.88,-0.74 141.25,-0.98 24.44,0.37 48.87,0.75 75.43,1.54z"/>
   <path class="fil23" d="M754.14 791.6c40.32,141.74 80.64,283.48 120.95,425.22 11.88,41.78 23.74,83.57 35.65,126.95 -24.7,1.56 -49.44,1.53 -76.22,1.23 -8.21,-26.7 -13.31,-53.45 -20.73,-79.53 -39.57,-139.1 -79.72,-278.02 -119.69,-417 -0.42,-1.44 -1.25,-2.77 -2.45,-6.59 20.45,-18.39 41.47,-34.33 62.5,-50.28z"/>
   <path class="fil24" d="M800.24 1753.99c0.77,0.02 1.54,0.03 4.96,0.72 8.9,3.4 15.12,6.18 21.41,8.82 32.7,13.69 65.43,27.34 96.72,41.72 -7.73,10.2 -15.7,18.97 -20.07,29.28 -26.55,62.49 -52.5,125.24 -78.13,188.12 -6.26,15.37 -10.56,31.53 -15.76,47.33 -41.56,0.29 -83.11,0.58 -126.78,-1.4 -0.58,-11.98 -0.91,-22.48 2.8,-31.26 28.6,-67.74 58.37,-134.98 86.92,-202.74 10.47,-24.85 18.62,-50.67 27.86,-77.18 0.02,-1.13 0.07,-3.4 0.07,-3.4z"/>
   <path class="fil25" d="M800.14 1758.53c-9.21,25.38 -17.37,51.2 -27.83,76.05 -28.55,67.76 -58.32,135 -86.92,202.74 -3.71,8.79 -3.38,19.28 -4.92,30.82 -46.4,-0.42 -92.8,-2.68 -140.78,-7.15 4.61,-16.02 11.19,-29.66 16.91,-43.66 14.06,-34.4 28.13,-68.81 41.41,-103.51 9.71,-25.37 18.19,-51.21 28.72,-77.52 20.05,-9.28 38.49,-18.11 57.17,-26.44 38.69,-17.25 77.49,-34.24 116.25,-51.33z"/>
   <path class="fil26" d="M597.57 911.27c14.44,47.21 29.34,94.29 43.24,141.66 23.38,79.69 46.23,159.53 69.05,239.38 4.59,16.07 8.06,32.46 12.09,50.6 -27.7,2.1 -55.44,2.32 -85.34,0.24 -15.6,-52.76 -28.48,-103.39 -42.62,-153.67 -21.37,-75.99 -43.62,-151.73 -64.81,-228.92 4.87,-6.57 9.06,-11.79 14.85,-17.18 18.92,-10.82 36.23,-21.47 53.55,-32.11z"/>
   <path class="fil27" d="M1334.26 1957.3c14.31,-39.3 28.95,-78.49 42.85,-117.93 18.13,-51.47 35.78,-103.11 53.39,-154.76 3.69,-10.82 6.32,-22 9.65,-34.77 29.75,39.86 59.3,81.48 87.84,125.51 -4.27,9.15 -8.26,15.65 -10.67,22.69 -14.94,43.67 -28.69,87.78 -44.55,131.11 -9.19,25.14 -21.57,49.11 -34.22,73.41 -21.04,-7.3 -40.73,-13.59 -59.61,-21.76 -15.4,-6.67 -29.83,-15.58 -44.69,-23.49z"/>
   <path class="fil28" d="M528.48 961.92c21.88,75.85 44.12,151.59 65.49,227.57 14.14,50.28 27.03,100.9 40.49,153.34 -21.65,3.06 -43.32,4.15 -68.86,5.61 -11.88,0.33 -19.9,0.29 -27.95,-1.57 -7.18,-28.87 -13.88,-56.05 -21.6,-82.93 -17.95,-62.59 -36.02,-125.15 -54.89,-187.47 -5.19,-17.15 -13.39,-33.4 -19.63,-51.32 3.3,-5.01 6.01,-8.76 10.33,-12.68 26.61,-16.97 51.61,-33.76 76.61,-50.55z"/>
   <path class="fil29" d="M811.49 2070.41c3.08,-16.23 7.38,-32.4 13.64,-47.76 25.63,-62.88 51.58,-125.63 78.13,-188.12 4.38,-10.3 12.34,-19.08 21.78,-29.05 37.31,13.15 71.5,26.79 104.38,41.39 -15.58,31.99 -30.65,62.69 -43.91,94.15 -17.99,42.69 -34.6,85.96 -51.8,128.98 -40.03,0.28 -80.06,0.57 -122.21,0.42z"/>
   <path class="fil30" d="M625.23 1836.97c-9.03,25.63 -17.51,51.47 -27.22,76.85 -13.29,34.7 -27.35,69.11 -41.41,103.51 -5.72,14 -12.3,27.64 -18.68,43.07 -81.25,-7.57 -155.13,-37.24 -226.32,-78.61 5.03,-3.78 11.01,-6.27 19.64,-10.19 16.51,-7.57 30.53,-13.39 44.22,-19.9 51.09,-24.3 102.07,-48.82 154.83,-73.31 32.81,-13.84 63.87,-27.63 94.94,-41.42z"/>
   <path class="fil30" d="M896.94 1708.02c6.42,-21.75 12.27,-43.7 19.37,-65.23 20.24,-61.38 40.92,-122.63 61.68,-183.84 1.93,-5.71 5.63,-10.83 9.84,-17.18 41.5,3.71 81.67,8.38 123.68,15.17 -6.39,26.34 -15.61,50.3 -22.6,74.89 -9.63,33.89 -17.56,68.26 -27.69,103.08 -55.75,24.81 -110.02,48.96 -164.29,73.11z"/>
   <path class="fil31" d="M935.83 2070.43c15.08,-43.46 31.68,-86.73 49.67,-129.41 13.26,-31.46 28.34,-62.15 45.6,-94.1 6.37,-0.77 9.74,-0.63 13.11,-0.48 32.92,13.67 65.84,27.32 98.74,41.03 4.91,2.04 9.72,4.32 14.87,9.24 -13.04,31.61 -27.58,60 -39.36,89.48 -10.92,27.32 -18.89,55.82 -28.16,83.79 -50.78,0.3 -101.56,0.59 -154.46,0.46z"/>
   <path class="fil32" d="M1092.41 2070.41c7.15,-28.41 15.12,-56.91 26.04,-84.23 11.78,-29.48 26.32,-57.87 40.37,-88.22 11.78,1.71 22.86,4.89 35.68,8.2 34.65,13.8 67.55,27.45 100.43,41.17 4.9,2.04 9.69,4.36 15.32,9.58 -12.92,39.7 -26.63,76.38 -40.35,113.06 -58.46,0.29 -116.91,0.58 -177.49,0.44z"/>
   <path class="fil33" d="M1440.25 2002.75c10.94,-24.5 23.32,-48.47 32.51,-73.61 15.85,-43.34 29.61,-87.44 44.55,-131.11 2.41,-7.04 6.4,-13.54 11.27,-21.13 34.43,58.45 55.65,121.65 63.87,188.92 3.94,32.2 5.95,64.64 6.77,98.82 -54.37,-19.4 -106.67,-40.64 -158.98,-61.88z"/>
   <path class="fil34" d="M1438.55 2002.55c54.01,21.44 106.32,42.68 160.22,64.14 -3.88,1.6 -9.35,4.19 -14.84,4.2 -103.26,0.17 -206.52,0.02 -311.91,-0.48 11.59,-37.11 25.3,-73.78 39.21,-112.21 6.54,-1.57 12.89,-1.38 21.12,-1.04 16.75,8.07 31.18,16.98 46.58,23.65 18.88,8.17 38.56,14.46 59.61,21.76z"/>
   <path class="fil25" d="M1062.7 1634.24c8.65,-34.16 16.59,-68.53 26.21,-102.41 6.98,-24.59 16.21,-48.55 24.43,-74.61 63.91,10.31 122.92,35.02 179.62,69.26 -58.25,28.7 -117.42,56.11 -179.59,84.82 -18.89,8.52 -34.78,15.74 -50.67,22.95z"/>
   <path class="fil35" d="M537.68 1348.69c8.02,0.04 16.04,0.08 26.07,0.16 2.08,27.67 2.16,55.3 2.29,85.07 -46.31,2.38 -92.68,2.61 -142.9,2.78 -7.33,-0.26 -10.81,-0.45 -14.31,-2.77 -0.02,-29.81 -0.02,-57.49 1.92,-85.16 12.92,-1.52 23.9,-3.05 37.05,-4.58 31.4,1.5 60.65,3 89.89,4.5z"/>
   <path class="fil36" d="M1264.57 134.21c36.41,-14.41 72.04,-27.65 107.66,-40.92 9.29,-3.46 18.54,-7.02 29.51,-10.72 11.8,41.72 22.29,83.53 31.9,125.55 13.05,57.06 25.44,114.28 38.96,173.23 -40.43,43.14 -81.7,84.46 -126.1,125.11 -9.21,-14.5 -17.2,-27.83 -21.01,-42.25 -9.86,-37.32 -18.02,-75.09 -26.61,-112.74 -15.9,-69.71 -31.62,-139.47 -47.42,-209.2 4.11,-2.3 8.21,-4.59 13.09,-8.06z"/>
   <path class="fil37" d="M1249.94 142.92c17.34,69.08 33.06,138.83 48.96,208.54 8.59,37.65 16.75,75.42 26.61,112.74 3.81,14.43 11.8,27.75 19.53,42.54 -15.07,12.79 -31.78,24.61 -50.98,35.44 -40.41,-18.85 -78.32,-36.7 -114.91,-55.78 1.3,-9.42 2.87,-18 0.95,-25.71 -5.64,-22.63 -13.39,-44.74 -19.03,-67.38 -16.24,-65.2 -31.85,-130.56 -47.7,-195.86 45.01,-17.95 90.02,-35.91 136.58,-54.53z"/>
   <path class="fil6" d="M781.76 326.44c22.98,101.11 45.97,202.22 69,305.03 -52.25,2 -104.56,2.3 -158.99,0.39 -12.08,-48 -22.42,-93.72 -31.85,-139.63 -7.54,-36.71 -13.96,-73.65 -19.19,-110.68 48.13,-18.51 94.58,-36.81 141.02,-55.11z"/>
   <path class="fil38" d="M639.05 381.76c6.92,36.84 13.34,73.77 20.88,110.48 9.43,45.91 19.77,91.63 29.73,139.18 -39.75,2.25 -79.51,2.74 -123.04,3.25 -6.02,0.2 -8.27,0.38 -12.55,0.31 -12.94,-0.71 -23.85,-1.17 -34.76,-3.46 -11.39,-51.96 -22.79,-102.07 -34.15,-152.2 -2.5,-11.03 -4.86,-22.08 -7.29,-33.12 37.35,-14.93 74.7,-29.86 115.23,-45.62 17.44,-6.83 31.69,-12.83 45.94,-18.83z"/>
   <path class="fil5" d="M986.28 633.68c-5.73,-27.42 -7.73,-54.77 -13.68,-81.24 -11.26,-50.17 -24.99,-99.78 -37.08,-149.77 -1.29,-5.33 1.54,-11.66 4.31,-19.08 26.84,9.08 51.83,19.72 77.78,31.64 21.82,11.19 42.68,21.09 63.53,33.03 5.46,31.59 10.73,61.18 16.44,90.69 5,25.84 10.5,51.58 15.78,77.37 -22.93,4.53 -45.74,9.92 -68.84,13.33 -18.58,2.74 -37.52,3.09 -58.24,4.03z"/>
   <path class="fil39" d="M598.26 909.88c-18,12.04 -35.31,22.68 -55.56,32.52 -17.45,-46.47 -32.62,-91.93 -46.24,-137.85 -7.54,-25.44 -12.49,-51.64 -16.66,-77.54 26.75,-1.54 51.55,-3.03 77.41,-3.28 4.26,1.72 7.47,2.18 10.67,2.65 13.19,-0.17 26.38,-0.33 41.72,1.58 14.32,48.67 26.49,95.27 38.65,141.86 -16.43,12.89 -32.87,25.78 -49.99,40.07z"/>
   <path class="fil9" d="M1115.19 616.41c-7.1,-25.88 -12.59,-51.62 -17.6,-77.46 -5.71,-29.5 -10.98,-59.1 -14.79,-90.52 32.77,11.82 63.9,25.51 95.02,39.21 37.91,17.85 75.83,35.7 114.66,54.97 -53.18,37 -112.9,58.91 -177.29,73.8z"/>
   <path class="fil40" d="M649.64 869.14c-13.56,-45.92 -25.73,-92.52 -38.04,-140.9 67.51,-1.94 135.16,-2.11 204.97,-2.06 -3.26,10.06 -6.75,21.93 -14.51,29.31 -13.67,13.02 -29.95,23.29 -46.53,35.41 -22.42,16.63 -43.44,32.58 -65.16,49.91 -13.59,10.14 -26.47,18.9 -40.74,28.32z"/>
   <path class="fil41" d="M567.32 724.32c-2.65,1.58 -5.86,1.12 -10.12,-2.61 -1.07,-31 -1.08,-58.73 -1.1,-86.46 2.25,-0.19 4.5,-0.37 8.43,-0.3 1.87,29.28 2.05,58.3 2.79,89.38z"/>
   <path class="fil42" d="M640.74 381.56c-15.94,6.2 -30.2,12.2 -46.11,18.36 -18.97,-43.7 -36.11,-87.61 -53.64,-131.37 -11.53,-28.77 -23.62,-57.31 -35.49,-87.68 61.92,26.98 123.86,55.68 187.31,85.02 36.2,16.51 70.9,32.4 109.18,49.91 -7.75,4.2 -12.54,6.8 -18.77,10.02 -47.9,18.93 -94.34,37.24 -142.47,55.74z"/>
   <path class="fil43" d="M1016.66 413.94c-24.99,-10.64 -49.97,-21.27 -76.63,-32.09 -44.8,-20.86 -87.94,-41.54 -135.12,-64.15 31.34,-12.68 60.18,-24.35 90.53,-36.71 28.1,-10.96 54.7,-21.22 83.01,-30.44 13.83,41.07 26.87,80.84 37.49,121.25 3.47,13.2 0.66,28.05 0.71,42.14z"/>
   <path class="fil44" d="M476.36 446.85c3.94,10.4 6.31,21.46 8.8,32.48 11.36,50.12 22.76,100.24 32.03,152.63 -36.03,2.58 -69.93,2.9 -105.97,2.96 -25.26,-0.74 -48.39,-1.22 -71.57,-3.44 -9.22,-41.42 -18.37,-81.09 -27.52,-120.76 41.84,-16.79 83.68,-33.59 127.2,-50.57 12.95,-4.35 24.23,-8.5 37.03,-13.29z"/>
   <path class="fil45" d="M310.66 511.32c10.62,39.06 19.78,78.73 27.01,120.57 -11.35,2.56 -20.79,2.94 -32.36,3.03 -34.48,-0.11 -66.82,0.08 -101.3,-0.05 -32.95,-0.1 -63.76,0.12 -94.58,0.34 -32.22,-0.42 -64.44,-0.83 -98.74,-1.69 61.03,-25.8 124.16,-51.09 187.23,-76.53 26.23,-10.58 52.34,-21.46 80.19,-32.4 11.48,-4.35 21.28,-8.5 32.55,-13.27z"/>
   <path class="fil46" d="M91.14 724.64c6.41,-1.89 12.78,-1.98 23.21,-2.06 27.21,0.07 50.36,0.14 73.47,2.19 1.31,13.23 1.31,24.85 4.28,35.65 6.65,24.13 15.34,47.68 22.22,71.74 28.18,98.46 56,197.02 82.66,296.15 -5.06,4.81 -8.82,9.02 -14.02,13.87 -18.89,12.49 -36.34,24.35 -53.79,36.21 -10.56,-26.39 -23.02,-52.21 -31.3,-79.3 -19.82,-64.75 -37.71,-130.09 -56.3,-195.21 -16.88,-59.14 -33.65,-118.3 -50.42,-179.26z"/>
   <path class="fil47" d="M228.29 1179.64c18.34,-13.1 35.79,-24.96 56.15,-36.7 6.37,5.91 11.29,11.28 13.07,17.54 17.43,61.15 34.34,122.46 50.03,185.06 -26.55,1.97 -51.74,2.59 -79.04,3.22 -37.52,-1.54 -72.93,-3.09 -108.54,-6.37 -10.82,-29.74 -21.45,-57.75 -32.08,-85.76 4.08,-3.81 8.17,-7.61 13.04,-12.59 29.35,-21.83 57.91,-42.49 87.36,-64.4z"/>
   <path class="fil48" d="M1017.62 415.23c-1.02,-15.38 1.8,-30.23 -1.67,-43.43 -10.63,-40.41 -23.66,-80.18 -35.96,-121.89 31.42,-14.66 63.04,-27.63 95.61,-41.89 12.08,-4.25 23.21,-7.21 36.05,-10.37 17.57,65.1 33.18,130.46 49.41,195.66 5.64,22.64 13.39,44.75 19.03,67.38 1.92,7.71 0.35,16.29 -0.95,25.71 -32.44,-12.46 -63.57,-26.15 -96.33,-40.01 -22.5,-10.07 -43.36,-19.97 -65.18,-31.16z"/>
   <path class="fil49" d="M408.85 1436.05c3.48,0.19 6.97,0.38 12.16,0.92 -2.87,16.04 -7.14,31.83 -12.16,47.38 -2.29,7.12 -6.83,13.52 -9,20.66 -7.63,25.1 -14.67,50.37 -22.62,77.12 -14.86,-3.07 -29.05,-7.67 -44.99,-12.31 -30.04,-12.28 -58.26,-24.68 -86.65,-36.67 -11.82,-4.99 -24.02,-9.1 -37.74,-13.79 -62.92,-24.88 -124.15,-49.56 -185.35,-74.32 -4.22,-1.71 -8.2,-3.99 -13.26,-7.25 43.59,-1.31 88.15,-1.36 137.04,-1.43 44.34,-0.06 84.36,-0.1 126.54,-0.1 46.78,-0.04 91.4,-0.12 136.03,-0.2z"/>
   <path class="fil50" d="M126.45 1257.27c12.07,27.37 22.69,55.38 32.56,86.34 -4.76,3.69 -8.76,4.43 -12.76,5.17 -42.2,-1.97 -84.4,-3.94 -133.26,-6.22 13.43,-12.19 22.03,-19.99 31.32,-29.2 27.37,-19.42 54.03,-37.43 82.14,-56.08z"/>
   <path class="fil11" d="M146.25 1350.93c3.99,-2.89 7.99,-3.63 12.95,-5.59 36.37,0.34 71.77,1.89 109.3,5.58 2.13,29.86 2.15,57.58 2.17,85.29 -40.02,0.04 -80.05,0.08 -122.23,0.1 -2.16,-27.75 -2.17,-55.5 -2.18,-85.39z"/>
   <path class="fil11" d="M187.86 722.8c-23.15,-0.07 -46.3,-0.14 -71.59,-0.22 -3.67,-27.84 -5.19,-55.67 -6.78,-85.43 30.76,-2.15 61.57,-2.37 94.53,-0.13 2.15,30.18 2.15,57.9 0.32,85.6 -6.72,0.04 -11.59,0.11 -16.48,0.18z"/>
   <path class="fil51" d="M1061.23 1634.91c17.37,-7.88 33.26,-15.1 50.63,-22.95 -5.1,24.71 -10.85,50.31 -18.44,75.36 -15.75,52 -32.47,103.71 -49,157.33 -3.58,1.65 -6.96,1.51 -12.01,1.32 -35.87,-13.69 -70.06,-27.33 -105.95,-41.19 -34.42,-13.89 -67.15,-27.54 -99.85,-41.23 -6.28,-2.63 -12.5,-5.42 -20.25,-8.81 28.57,-15.18 58.65,-29.67 89.65,-45.44 55.21,-25.42 109.48,-49.57 165.22,-74.38z"/>
   <path class="fil52" d="M528.55 1878.43c-51.02,24.44 -102.01,48.96 -153.1,73.26 -13.69,6.51 -27.71,12.33 -43.25,18.62 -0.46,-11.43 -1.93,-24.16 2.41,-34.43 20.28,-48.03 43.17,-94.97 63.15,-143.12 14.78,-35.63 25.28,-73.04 40.13,-108.63 8.4,-20.15 21.74,-38.24 34.11,-58.16 33.89,11.25 66.51,23.4 100.84,35.74 13.34,5.49 24.98,10.81 36.34,18.4 -6.4,17.03 -12.59,31.76 -18.64,46.55 -20.69,50.58 -41.34,101.18 -62,151.77z"/>
   <path class="fil51" d="M530.29 1878.39c18.92,-50.55 39.57,-101.14 60.26,-151.72 6.05,-14.79 12.24,-29.52 19.64,-45.33 34.91,11.2 68.55,23.47 102.21,35.66 4.98,1.81 10.12,3.18 16.95,4.82 24.11,9.93 46.46,19.81 69.85,30.93 1.04,1.25 0.99,3.52 0.97,4.65 -38.78,18.23 -77.58,35.21 -116.27,52.46 -18.67,8.33 -37.12,17.16 -57.17,26.44 -32.57,14.47 -63.63,28.26 -96.44,42.1z"/>
   <path class="fil41" d="M477.85 727.04c6.12,25.86 11.07,52.06 18.61,77.5 13.62,45.92 28.78,91.38 44.63,138.03 -2.86,6.21 -7.05,11.43 -11.92,17.99 -25.68,18.14 -50.68,34.93 -78.02,50.24 -6.49,-17.47 -10.36,-33.54 -14.85,-49.44 -14,-49.53 -28.67,-98.87 -42.23,-148.52 -8.15,-29.84 -14.72,-60.1 -19.94,-90.22 14.47,-0.05 26.87,-0.06 40.61,1.27 21.93,1.93 42.53,2.54 63.12,3.14z"/>
   <path class="fil35" d="M372.06 722.68c7.28,30.07 13.85,60.34 22,90.17 13.56,49.65 28.23,98.99 42.23,148.52 4.49,15.89 8.36,31.96 13.24,49.61 -1.98,5.4 -4.69,9.15 -9.59,14.33 -24.13,16.67 -46.07,31.91 -69.47,46.39 -5.13,-8.12 -10.03,-15.12 -12.26,-22.88 -18.97,-65.88 -37.83,-131.79 -55.94,-197.91 -11.26,-41.11 -21.17,-82.59 -29.76,-123.91 14.47,-1.49 27,-2.98 40.84,-3.15 20.43,0.49 39.56,-0.33 58.7,-1.16z"/>
   <path class="fil53" d="M371.95 1072.46c21.94,-15.24 43.88,-30.48 67.42,-45.89 8.42,16.49 16.62,32.74 21.82,49.89 18.87,62.32 36.93,124.88 54.89,187.47 7.71,26.89 14.41,54.07 21.6,82.93 -29.22,0.32 -58.47,-1.18 -90.07,-4.42 -14.7,-46.33 -26.29,-91.16 -39.61,-135.46 -12.64,-42.06 -27.07,-83.58 -40.21,-126.52 1.73,-3.46 2.95,-5.73 4.17,-8z"/>
   <path class="fil54" d="M367.27 1081.65c13.64,41.76 28.08,83.28 40.72,125.34 13.32,44.31 24.91,89.13 37.46,135.46 -10.79,3.26 -21.77,4.79 -36.75,6.31 -22.59,-1.52 -41.19,-3.04 -59.79,-4.56 -17.06,-61.26 -33.96,-122.56 -51.39,-183.72 -1.78,-6.26 -6.7,-11.63 -11.63,-18.18 2.29,-4.97 6.06,-9.18 12.5,-14.67 24.76,-16.18 46.82,-31.09 68.89,-45.99z"/>
   <path class="fil46" d="M347.54 1345.55c19.96,0.17 38.56,1.69 59.22,3.21 2.06,27.68 2.06,55.35 2.07,85.16 -44.61,2.21 -89.23,2.29 -136.01,2.33 -2.17,-27.75 -2.18,-55.47 -2.21,-85.34 25.19,-2.78 50.37,-3.4 76.92,-5.37z"/>
   <path class="fil35" d="M479.79 727.01c-22.54,-0.57 -43.14,-1.17 -65.07,-5.27 -1.35,-31.19 -1.36,-58.87 -1.37,-86.56 33.91,-0.32 67.81,-0.63 103.84,-1.38 13.03,0.02 23.94,0.48 36.88,1.19 2.04,27.99 2.06,55.72 2.07,85.47 -24.8,3.51 -49.6,5.01 -76.35,6.55z"/>
   <path class="fil46" d="M411.22 634.92c2.15,27.94 2.16,55.63 2.17,85.48 -12.4,2.17 -24.81,2.18 -39.27,2.23 -21.19,0.88 -40.33,1.7 -60.75,-0.79 -2.83,-31.09 -4.38,-58.85 -5.92,-86.62 9.43,-0.38 18.87,-0.77 30.28,-1.58 25.11,0.06 48.23,0.54 73.49,1.28z"/>
   <path class="fil4" d="M305.31 634.92c3.68,28.06 5.22,55.83 6.76,85.6 -12.54,3.49 -25.08,4.98 -41.25,5.74 -14.79,-1.49 -25.94,-2.41 -37.11,-2.96 -9.17,-0.45 -18.36,-0.47 -27.54,-0.68 -0.01,-27.72 -0.01,-55.44 -0.02,-85.3 32.33,-2.33 64.68,-2.52 99.16,-2.41z"/>
   <path class="fil55" d="M204.34 722.61c11.01,0.23 20.2,0.25 29.37,0.7 11.17,0.55 22.32,1.47 35.18,2.96 12.22,42.05 22.13,83.53 33.39,124.64 18.11,66.12 36.97,132.03 55.94,197.91 2.24,7.77 7.14,14.77 12.26,22.88 0.24,3.03 -0.98,5.3 -2.71,8.76 -22.57,16.09 -44.64,30.99 -68.1,46.57 -29.35,-97.84 -57.16,-196.4 -85.34,-294.86 -6.89,-24.06 -15.57,-47.62 -22.22,-71.74 -2.98,-10.8 -2.97,-22.42 -4.28,-35.65 4.92,-2.05 9.8,-2.12 16.51,-2.16z"/>
  </g>
 </g>
</svg>
